<?xml version="1.0" standalone="no"?>
<!DOCTYPE svg PUBLIC "-//W3C//DTD SVG 20010904//EN"
 "http://www.w3.org/TR/2001/REC-SVG-20010904/DTD/svg10.dtd">
<svg version="1.0" xmlns="http://www.w3.org/2000/svg"
 width="360.000000pt" height="360.000000pt" viewBox="0 0 360.000000 360.000000"
 preserveAspectRatio="xMidYMid meet">
<metadata>
Created by potrace 1.16, written by Peter Selinger 2001-2019
</metadata>
<g transform="translate(0.000000,360.000000) scale(0.100000,-0.100000)"
fill="#000000" stroke="none">
<path d="M975 3310 c-27 -10 -80 -26 -118 -35 -84 -22 -117 -46 -117 -87 0
-66 98 -299 189 -452 34 -56 35 -60 17 -70 -10 -6 -31 -21 -46 -33 -15 -13
-34 -23 -41 -23 -22 0 -328 -311 -389 -396 -61 -83 -124 -201 -156 -289 -12
-35 -19 -89 -22 -182 l-4 -133 75 -122 c41 -68 87 -147 101 -177 15 -29 47
-79 72 -110 24 -31 44 -63 44 -72 0 -9 26 -37 59 -62 60 -48 218 -147 233
-147 4 0 56 -22 116 -48 199 -90 342 -124 596 -142 396 -28 958 -110 1145
-167 121 -36 171 -23 171 47 0 39 -23 104 -45 130 -23 26 -55 170 -55 247 0
40 7 117 16 171 43 265 76 499 86 605 21 211 -18 505 -100 752 -61 184 -111
279 -191 368 -27 28 -57 73 -69 98 -41 96 -172 139 -421 139 -172 0 -213 -9
-385 -80 -53 -22 -103 -40 -112 -40 -28 0 -165 -74 -211 -114 -24 -21 -45 -37
-46 -35 -79 117 -166 272 -212 379 -16 36 -35 73 -43 83 -19 22 -72 21 -137
-3z m1377 -292 c109 -29 129 -59 110 -157 -16 -84 -42 -184 -52 -196 -4 -5
-11 -21 -15 -35 -12 -43 -105 -198 -146 -244 -22 -24 -39 -49 -39 -56 0 -16
-328 -343 -362 -361 -15 -8 -61 -33 -102 -56 -41 -24 -80 -43 -86 -43 -5 0
-10 -4 -10 -10 0 -5 -4 -10 -10 -10 -8 0 -166 -87 -268 -147 -20 -12 -68 -39
-106 -59 -38 -20 -98 -51 -132 -69 -34 -18 -101 -43 -149 -55 -74 -18 -106
-21 -233 -17 -213 6 -316 38 -362 112 -39 63 -22 257 30 353 5 9 20 41 34 69
44 93 135 204 285 351 80 78 152 142 158 142 7 0 31 16 53 36 22 20 46 34 53
31 17 -6 154 -251 167 -297 17 -61 62 -89 89 -56 7 8 35 17 64 21 154 20 214
73 237 213 11 62 4 83 -47 155 -84 115 -91 132 -67 158 40 46 139 110 193 125
31 9 61 20 66 23 11 8 124 52 205 80 47 16 80 18 220 17 112 -2 183 -7 222
-18z m225 -215 c16 -21 55 -103 74 -155 7 -21 16 -38 19 -38 15 0 87 -202 104
-290 3 -14 12 -54 20 -90 23 -100 39 -323 32 -431 -3 -54 -15 -153 -27 -220
-11 -67 -27 -168 -35 -223 -8 -56 -21 -144 -29 -196 -22 -145 -15 -311 15
-375 14 -30 43 -139 39 -145 -6 -8 -63 1 -75 11 -12 10 -153 36 -339 64 -55 8
-121 19 -147 25 -26 5 -101 14 -165 20 -65 6 -125 15 -134 20 -8 4 -71 11
-140 15 -284 14 -521 47 -596 81 -17 8 -37 14 -45 14 -7 0 -22 6 -33 14 -11 7
-31 17 -45 21 -14 4 -54 21 -90 37 -232 106 -301 154 -391 273 -49 64 -116
191 -107 200 8 8 30 7 138 -6 103 -12 287 -7 389 12 43 8 110 35 208 85 80 41
151 78 157 82 6 5 31 21 56 34 25 14 81 46 125 72 44 25 84 46 88 46 5 0 21 8
35 19 15 10 63 38 107 61 44 23 109 66 145 95 71 58 291 281 356 360 118 145
196 296 234 450 18 73 18 75 31 75 7 0 18 -8 26 -17z"/>
<path d="M2215 2049 c-61 -15 -109 -53 -139 -112 -22 -44 -26 -66 -26 -133 0
-93 20 -149 95 -266 55 -84 91 -108 163 -108 62 0 92 13 92 40 0 26 -29 40
-84 40 -57 0 -79 22 -143 145 -58 110 -63 172 -23 245 38 67 61 75 225 75
l140 0 18 -38 c9 -20 20 -63 23 -95 5 -49 3 -62 -18 -92 -27 -40 -116 -89
-165 -89 -43 -1 -77 53 -78 124 l0 50 38 3 c31 3 37 0 37 -16 0 -11 -11 -27
-25 -36 -39 -25 -28 -76 17 -76 59 0 104 63 95 132 -9 68 -29 80 -120 76 -72
-3 -81 -6 -103 -31 -56 -66 -9 -259 72 -296 82 -37 240 20 299 109 28 42 30
51 29 135 -1 77 -5 98 -27 142 -41 80 -49 83 -212 82 -77 -1 -158 -5 -180 -10z"/>
<path d="M1450 1450 c-106 -56 -147 -93 -161 -143 -14 -51 -6 -114 20 -166 42
-81 179 -172 310 -207 103 -26 152 -14 215 56 94 104 115 275 44 356 -45 51
-122 87 -171 81 -60 -8 -126 -47 -161 -95 -27 -39 -31 -52 -31 -112 0 -58 4
-72 24 -94 57 -61 145 -56 200 12 40 47 43 107 8 140 -27 26 -59 28 -78 6 -10
-12 -10 -19 -1 -32 23 -32 24 -43 7 -62 -33 -37 -85 -20 -85 27 0 62 64 123
129 123 42 0 99 -34 112 -67 31 -83 -21 -220 -101 -263 -61 -32 -288 71 -340
156 -29 46 -27 124 3 151 28 27 143 89 179 97 31 7 45 40 28 61 -21 25 -71 16
-150 -25z"/>
<path d="M2231 1196 c-67 -29 -81 -47 -81 -107 0 -57 26 -94 84 -120 86 -39
161 -15 197 65 38 85 21 138 -57 171 -49 20 -79 18 -143 -9z"/>
<path d="M3154 2865 c-4 -9 10 -64 29 -123 19 -59 45 -152 57 -207 40 -181 51
-210 83 -213 49 -6 48 5 -14 265 -30 125 -73 258 -91 281 -14 17 -57 15 -64
-3z"/>
<path d="M2877 2843 c-13 -12 -7 -35 27 -106 41 -89 78 -200 111 -336 13 -58
29 -109 34 -114 5 -5 19 -7 32 -5 20 2 25 10 27 39 7 83 -112 449 -166 512
-15 17 -53 23 -65 10z"/>
<path d="M570 769 c-25 -46 16 -114 141 -235 110 -105 141 -126 181 -122 25 2
34 8 36 25 2 17 -10 30 -55 61 -73 50 -221 204 -229 240 -13 54 -53 71 -74 31z"/>
<path d="M457 564 c-4 -4 -7 -22 -7 -40 0 -60 160 -243 227 -260 35 -9 58 0
61 23 2 16 -8 29 -41 52 -55 38 -138 128 -169 183 -22 40 -54 59 -71 42z"/>
</g>
</svg>
